<?xml version="1.0" encoding="UTF-8" standalone="no"?>
<!-- Created with Inkscape (http://www.inkscape.org/) -->

<svg
   xmlns:dc="http://purl.org/dc/elements/1.1/"
   xmlns:cc="http://creativecommons.org/ns#"
   xmlns:rdf="http://www.w3.org/1999/02/22-rdf-syntax-ns#"
   xmlns:svg="http://www.w3.org/2000/svg"
   xmlns="http://www.w3.org/2000/svg"
   xmlns:sodipodi="http://sodipodi.sourceforge.net/DTD/sodipodi-0.dtd"
   xmlns:inkscape="http://www.inkscape.org/namespaces/inkscape"
   version="1.1"
   id="svg2"
   xml:space="preserve"
   width="630"
   height="227"
   viewBox="0 0 630 227"
   sodipodi:docname="ESA_logo_2020_White.svg"
   inkscape:version="0.92.3 (2405546, 2018-03-11)"><metadata
     id="metadata8"><rdf:RDF><cc:Work
         rdf:about=""><dc:format>image/svg+xml</dc:format><dc:type
           rdf:resource="http://purl.org/dc/dcmitype/StillImage" /><dc:title></dc:title></cc:Work></rdf:RDF></metadata><defs
     id="defs6"><clipPath
       clipPathUnits="userSpaceOnUse"
       id="clipPath20"><path
         d="M 0,510.236 H 812.81 V 0 H 0 Z"
         id="path18"
         inkscape:connector-curvature="0" /></clipPath></defs><sodipodi:namedview
     pagecolor="#ffffff"
     bordercolor="#666666"
     borderopacity="1"
     objecttolerance="10"
     gridtolerance="10"
     guidetolerance="10"
     inkscape:pageopacity="0"
     inkscape:pageshadow="2"
     inkscape:window-width="1859"
     inkscape:window-height="1025"
     id="namedview4"
     showgrid="false"
     inkscape:zoom="1.1924628"
     inkscape:cx="541.87335"
     inkscape:cy="340.15735"
     inkscape:window-x="61"
     inkscape:window-y="27"
     inkscape:window-maximized="1"
     inkscape:current-layer="g10" /><g
     id="g10"
     inkscape:groupmode="layer"
     inkscape:label="ESA_logo_2020_White"
     transform="matrix(1.3333333,0,0,-1.3333333,0,226.99997)"><g
       id="g14"
       transform="translate(-170.07884,-170.07869)"><g
         id="g16"
         clip-path="url(#clipPath20)"><g
           id="g22"
           transform="translate(509.9659,263.1719)"><path
             d="m 0,0 c -7.3,1.351 -16.88,2.062 -19.995,6.484 -4.68,6.644 1.166,16.31 16.478,15.407 C 10.344,21.073 12.234,10.377 12.425,6.217 H 32.42 c 0.273,7.834 -2.972,15.94 -7.839,21.074 -6.207,6.483 -20.802,13.245 -38.898,10.534 -9.734,-1.345 -22.702,-7.017 -27.03,-19.723 -3.784,-11.885 0,-22.692 7.295,-28.37 9.19,-7.028 26.435,-9.132 33.509,-10.544 8.553,-1.708 14.904,-2.852 13.849,-11.951 -1.11,-9.562 -15.932,-12.284 -25.739,-9.119 -6.991,2.257 -10,7.839 -11.35,15.402 h -21.07 c 0,-9.584 5.702,-19.697 11.474,-24.338 8.562,-6.885 18.29,-9.307 29.531,-9.307 14.764,0 26.981,3.805 34.38,14.731 3.878,5.729 8.106,18.914 1.345,30.799 C 25.937,-4.323 12.425,-2.161 0,0"
             style="fill:#ffffff;fill-opacity:1;fill-rule:nonzero;stroke:none"
             id="path24"
             inkscape:connector-curvature="0" /></g><g
           id="g26"
           transform="translate(440.2461,288.3018)"><path
             d="m 0,0 c -8.583,9.809 -23.611,15.405 -38.905,12.974 -28.696,-4.564 -35.721,-31.754 -37.02,-40.537 -2.431,-16.443 2.434,-44.042 31.347,-54.855 13.502,-5.129 30.531,-3.239 43.499,6.217 7.295,5.411 14.591,17.563 15.13,25.136 H -9.997 c -0.806,-3.246 -2.7,-7.573 -7.024,-10.813 -9.732,-7.023 -20.806,-2.434 -25.673,1.083 -7.295,5.401 -9.995,14.316 -9.995,27.02 0,17.59 8.086,28.009 22.051,28.009 12.637,0 20.45,-10.874 19.835,-19.903 H -44.855 V -42.692 H 14.051 C 15.489,-26.666 8.042,-9.191 0,0"
             style="fill:#ffffff;fill-opacity:1;fill-rule:nonzero;stroke:none"
             id="path28"
             inkscape:connector-curvature="0" /></g><g
           id="g30"
           transform="translate(615.4346,232.713)"><path
             d="M 0,0 C -1.962,-5.644 -7.259,-9.787 -17.29,-11.105 -30.524,-12.844 -39.565,-4.628 -33.843,5.95 -28.097,16.574 -6.935,12.808 1.083,20.54 1.083,18.38 1.433,4.125 0,0 m 24.324,-3.511 v 29.186 c 0,4.426 -0.535,15.074 -1.889,22.157 -0.976,5.1 -5.373,12.835 -13.791,17.032 -7.337,3.657 -12.982,4.316 -24.928,4.316 -17.957,0 -37.285,-6.245 -38.112,-32.155 h 21.612 c 0,9.375 6.494,14.912 16.438,14.912 9.731,0 17.983,-5.24 16.084,-13.833 -1.898,-8.595 -17.767,-8.915 -27.909,-10.267 -11.76,-1.569 -27.562,-7.024 -31.346,-23.509 -1.35,-6.484 -0.271,-18.374 9.724,-26.208 6.761,-5.134 13.942,-7.3 23.513,-7.3 12.209,0 22.471,5.317 28.179,10.54 0.267,-1.35 1.617,-6.483 2.701,-7.839 h 22.696 c -3.517,7.028 -2.972,17.923 -2.972,22.968"
             style="fill:#ffffff;fill-opacity:1;fill-rule:nonzero;stroke:none"
             id="path32"
             inkscape:connector-curvature="0" /></g><g
           id="g34"
           transform="translate(210.8887,244.422)"><path
             d="m 0,0 c -5.357,0 -9.7,4.343 -9.7,9.699 0,5.358 4.343,9.7 9.7,9.7 5.357,0 9.7,-4.342 9.7,-9.7 C 9.7,4.343 5.357,0 0,0 M 75.251,-43.512 C 36.956,-30.29 29.872,5.136 39.416,29.937 48.946,54.735 82.328,66.312 105.492,49.694 128.666,33.071 126.207,1.187 126.207,1.187 H 66.803 v 17.024 h 34.475 c 0,0 0.962,6.639 -4.775,12.95 -7.65,8.419 -18.619,8.322 -25.751,4.221 -8.887,-5.111 -14.985,-23.344 -10.224,-39.375 4.762,-16.031 19.32,-22.402 33.325,-22.402 20.288,0 35.385,14.024 35.417,36.983 0.077,38.046 -25.579,72.734 -64.135,82.517 -45.511,11.544 -91.763,-15.991 -103.315,-61.502 -11.543,-45.512 15.988,-91.77 61.502,-103.316 32.488,-8.24 65.35,3.428 85.701,27.334 -9.635,-2.847 -21.082,-3.511 -33.772,0.867"
             style="fill:#ffffff;fill-opacity:1;fill-rule:nonzero;stroke:none"
             id="path36"
             inkscape:connector-curvature="0" /></g></g></g></g></svg>